<svg width="61" height="60" fill="none" xmlns="http://www.w3.org/2000/svg"><circle cx="30.5" cy="30" r="30" fill="#EFF6F1"/><path d="M41.16 23.958a8.686 8.686 0 01-2.434.659 4.197 4.197 0 001.865-2.307 8.512 8.512 0 01-2.693 1.011A4.265 4.265 0 0034.803 22c-2.342 0-4.238 1.868-4.238 4.17-.001.321.035.64.11.952a12.082 12.082 0 01-8.738-4.36 4.119 4.119 0 00-.576 2.096 4.16 4.16 0 001.894 3.473 4.197 4.197 0 01-1.928-.52v.051c0 2.023 1.464 3.706 3.4 4.09a4.377 4.377 0 01-1.116.146 4.11 4.11 0 01-.797-.078c.539 1.657 2.106 2.862 3.962 2.897a8.591 8.591 0 01-6.276 1.726 11.995 11.995 0 006.488 1.885c7.806 0 12.07-6.357 12.07-11.87 0-.182-.004-.362-.013-.539a8.544 8.544 0 002.115-2.16z" fill="#274C5B"/></svg>