<svg width="61" height="60" fill="none" xmlns="http://www.w3.org/2000/svg"><circle cx="30.5" cy="30" r="30" fill="#EFF6F1"/><path fill-rule="evenodd" clip-rule="evenodd" d="M39.783 30.284c0-5.127-4.317-9.284-9.642-9.284-5.324 0-9.641 4.157-9.641 9.284 0 4.634 3.525 8.475 8.135 9.172V32.97h-2.449v-2.685h2.449V28.24c0-2.327 1.44-3.613 3.642-3.613 1.055 0 2.158.182 2.158.182v2.285H33.22c-1.197 0-1.572.715-1.572 1.45v1.741h2.674l-.427 2.685h-2.246v6.488c4.61-.697 8.135-4.538 8.135-9.173z" fill="#274C5B"/></svg>