<svg width="124" height="27" fill="none" xmlns="http://www.w3.org/2000/svg"><path d="M13.926 2.782c.308-.904 1.586-.904 1.894 0l1.968 5.782a1 1 0 00.947.678H25c.98 0 1.375 1.263.57 1.822l-4.989 3.46a1 1 0 00-.376 1.143l1.924 5.653c.31.914-.724 1.694-1.517 1.144l-5.17-3.585a1 1 0 00-1.14 0l-5.17 3.585c-.793.55-1.828-.23-1.517-1.143l1.924-5.654a1 1 0 00-.376-1.143l-4.99-3.46c-.805-.559-.41-1.822.57-1.822h6.268a1 1 0 00.946-.678l1.968-5.782zm23.559.146c.3-.922 1.603-.922 1.902 0l1.828 5.623a1 1 0 00.95.69h5.913c.969 0 1.372 1.24.588 1.81l-4.783 3.475a1 1 0 00-.364 1.118l1.827 5.624c.3.921-.755 1.687-1.539 1.118l-4.783-3.476a1 1 0 00-1.175 0l-4.784 3.476c-.783.57-1.838-.197-1.539-1.118l1.827-5.624a1 1 0 00-.363-1.118l-4.783-3.475c-.784-.57-.381-1.81.588-1.81h5.912a1 1 0 00.951-.69l1.827-5.623zm23.568-.146c.308-.904 1.586-.904 1.894 0l1.968 5.782a1 1 0 00.947.678h6.266c.98 0 1.376 1.263.57 1.822l-4.988 3.46a1 1 0 00-.377 1.143l1.924 5.653c.31.914-.724 1.694-1.517 1.144l-5.17-3.585a1 1 0 00-1.14 0l-5.17 3.585c-.793.55-1.828-.23-1.517-1.143l1.924-5.654a1 1 0 00-.377-1.143l-4.988-3.46c-.806-.559-.41-1.822.57-1.822h6.266a1 1 0 00.947-.678l1.968-5.782zm23.559.146c.3-.922 1.603-.922 1.902 0l1.827 5.623a1 1 0 00.952.69h5.912c.969 0 1.371 1.24.588 1.81l-4.784 3.475a1 1 0 00-.363 1.118l1.827 5.624c.3.921-.755 1.687-1.539 1.118l-4.783-3.476a1 1 0 00-1.175 0l-4.784 3.476c-.783.57-1.838-.197-1.539-1.118l1.828-5.624a1 1 0 00-.364-1.118l-4.783-3.475c-.784-.57-.381-1.81.588-1.81h5.912a1 1 0 00.951-.69l1.827-5.623zm23.568-.146c.308-.904 1.586-.904 1.894 0l1.968 5.782a1 1 0 00.946.678h6.267c.98 0 1.375 1.263.57 1.822l-4.989 3.46a1 1 0 00-.376 1.143l1.924 5.653c.311.914-.724 1.694-1.517 1.144l-5.17-3.585a1 1 0 00-1.14 0l-5.17 3.585c-.793.55-1.828-.23-1.517-1.143l1.924-5.654a1 1 0 00-.377-1.143l-4.988-3.46c-.806-.559-.41-1.822.57-1.822h6.266a1 1 0 00.947-.678l1.968-5.782z" fill="#FFA858"/></svg>